<?xml version="1.0" encoding="utf-8"?>
<svg width="25916.27px" height="18995.285px" viewBox="0 0 25916.27 18995.285" version="1.1" xmlns:xlink="http://www.w3.org/1999/xlink" xmlns="http://www.w3.org/2000/svg">
  <g id="Group">
    <path d="M221 10780L355 11096L1469 12073L6377.5 12073L6644.5 12073L6952.5 12209.5L8215.25 12191.1L8455 12895.5L9126 14142.5L9760 14891L9126 15788.5L9066 16731L9488.5 17618L10528.5 18543.5L11126.5 18820L11969.5 18849.5L12768 18497L13586.5 17681.5L14672 17986L16399.5 18214.5L17854.5 18214.5L19957 17681.5L21801 16731L21993 16706L22621.5 17329L23539.5 17724L24268.5 17724L25024.5 17329L25534 16706L25662 15967.5L25534 15170L24500 13955L25324.5 12073L25779 9933L25750 8039.5L25343.5 6310.5L24815 5057L24429.5 4443L24759 2774L24621.5 2137.5L24375.5 1804L23418.5 953L22785.5 771L21274.5 1177L20939.5 1177L20150 771L18652 302.5L17277.5 149.5L16045.5 149.5L14536 396L12958 953L11707 1652L10528.5 2581L9488.5 3710.5L8675 5057L8455 5281.5L6952.5 5281.5L6377.5 4751.5L1942 4751.5L1790.5 4923L826.5 8039.5L917 8260.5L715 8523.5L129.5 10206.5L221 10780Z" id="Vector" fill="#02171B" fill-rule="evenodd" stroke="none" />
    <g id="PivotPoint-n">
      <g id="Layer_x0020_1">
        <g id="_1858620767776">
          <path d="M15381.2 15713.8C16148.5 15392.1 16942.1 14950.2 17729.3 14398.8L17800.5 14470C17816.5 14486 17832.7 14501.6 17849.2 14516.8L17920 14582.3C16912.9 15292.7 15893.7 15828 14928 16167.1L15381.2 15713.8L15381.2 15713.8ZM21310.2 10968.4C21518.7 10699 21715.1 10427.6 21899 10155.6C22435.1 9362.48 22864.3 8564.51 23177 7793.64C23246.8 7621.37 23310.9 7450.52 23369 7281.4C23555.7 7127.71 23688.4 6915.3 23747.1 6665.15L24028.2 5467.85C23970.9 6218.6 23763.5 7040.02 23418.2 7891.35C23098.8 8678.98 22661.1 9493.12 22114.8 10301.2C21921.9 10586.5 21715.4 10871.2 21495.6 11153.8L21310.2 10968.3L21310.2 10968.4ZM25857.1 10223.6C25744 11216.3 25469.1 12194.6 25032 13115.5C24867.6 13461.9 24680.2 13800.1 24469.8 14128L24281.6 13939.7C24473.4 13636.3 24645.2 13324 24796.8 13004.6C25221.6 12109.7 25488.7 11159.4 25598.5 10195C25752.2 8845.7 25598.2 7468.79 25138.2 6177.75C24987.8 5755.79 24804.7 5342.99 24589 4943.32C24646 5116.66 24695.8 5293.22 24738.3 5472.66C25006.2 6603.79 24985.2 7848.34 24687.2 9102.49C24475 9995.79 24121.4 10895.4 23630.8 11763.5C23451.9 12080.1 23254.9 12392.2 23040 12698.2L22853.7 12511.8C23053.7 12224.8 23237.5 11932.4 23404.8 11636.3C23882.1 10791.7 24226.5 9914.77 24433.8 9042.41C24722.5 7827.11 24743.4 6623.38 24484.9 5531.68C24415.1 5237.22 24325 4950.91 24214.4 4674.69L24358.6 4060.3C24789.5 4700.46 25131.3 5383.3 25383.5 6091.23C25856.7 7419.32 26015.1 8835.66 25857 10223.5L25857.1 10223.6ZM22071.1 16651C20517.1 17763 18691.2 18332.9 16858.1 18357.2C15675.7 18372.8 14490.4 18161.3 13373.1 17721.9L13574.1 17521C14628.8 17920.3 15743.3 18112.3 16855 18097.6C18619.4 18074.3 20376.8 17530.4 21877.6 16469.6L21885.7 16477.8C21901.8 16493.9 21918.1 16509.6 21934.7 16524.9L22071.1 16651L22071.1 16651ZM9735.69 15116.2C9529.73 14873.9 9338.34 14623.4 9161.59 14365.8C8815.58 13861.6 8525.35 13330 8291.07 12779.9C8194.77 12553.8 8108.03 12324.6 8030.69 12092.9L8170.52 12092.9C8215.19 12092.9 8258.02 12085.3 8297.7 12071.1C8367.63 12275.6 8445.12 12478.1 8530.29 12678.1C8636.63 12927.8 8754.89 13173.7 8885.07 13414.8C8874.87 13383.8 8864.88 13352.7 8855.16 13321.6C8694.62 12807.1 8597.7 12264.8 8563.02 11705.4L8676.86 11339.8L8809.15 11339.8C8818.64 12002.5 8916.03 12643.4 9103.55 13244.2C9214.18 13598.7 9355.88 13938.8 9528.99 14260.7C9502.7 14143.2 9481.68 14022.3 9465.82 13898.4C9384.07 13259.2 9441.81 12539.6 9628.7 11774L9743.94 11880.6C9750.51 11886.6 9757.23 11892.6 9764.12 11898.4C9791.66 11921.8 9820.91 11942.3 9851.47 11960.4C9695.47 12647.9 9650.02 13292.3 9723.37 13865.8C9767.89 14214 9856.84 14536.4 9992.04 14826.7C9995.54 14834.3 9999.11 14841.8 10002.7 14849.2L9735.71 15116.2L9735.69 15116.2ZM8373.81 5389.77C8801.23 4446.25 9396.74 3559.56 10161.1 2774.72C11310.6 1594.45 12700.5 789.594 14177.9 362.268C15708.4 -80.455 17332.8 -117.795 18880.8 252.458C19671.5 441.576 20441.5 736.501 21168.2 1137.49C21238.4 1176.27 21308.3 1216.05 21377.8 1256.82L20667.8 1460.55C20320.3 1357.72 19959.9 1285.18 19590.2 1242.43C18305.3 1093.93 16908.5 1305.86 15546.2 1857.5C14227.9 2391.3 12942.8 3242.67 11822.7 4392.77C11504 4720.05 11209.8 5060.02 10940.5 5409.59C10836.5 5396.98 10730.3 5393.26 10626.8 5393.24C10931 4985.61 11267.6 4590.22 11636.4 4211.58C12782.9 3034.38 14098.6 2162.87 15448.5 1616.26C16851.1 1048.28 18291.8 830.379 19619.7 983.88C20012.1 1029.23 20394.8 1107.12 20764.1 1218.04C20139.9 902.031 19487.3 664.362 18820.7 504.928C17316.4 145.116 15737.7 181.431 14250.2 611.71C12815 1026.84 11464.5 1808.92 10347.4 2955.93C9633.68 3688.8 9071.4 4513 8660.03 5389.78L8373.81 5389.78L8373.81 5389.77ZM20163.8 15572.9C18788.5 16536.4 17287.7 17133.5 15831.2 17340.1C15115.5 17441.7 14410.4 17448.9 13735.8 17359.3L13970.2 17124.9C14560.5 17185.5 15173.7 17170.8 15795.5 17082.6C17074.4 16901.2 18389.5 16409.4 19619.3 15624.7C19801.5 15636.2 19985.5 15619 20163.8 15572.9L20163.8 15572.9ZM14464.9 4617.75C15239.3 3964.47 16035.8 3413.67 16822.8 2975.67C17333.9 2691.17 17841.3 2454.14 18336.4 2267.32C18226.7 2373.81 18139.7 2502.87 18080.6 2649.12C17708.4 2805.73 17330 2990.65 16949 3202.69C16203.2 3617.76 15448.3 4136.44 14712 4749.61C14633.1 4698.82 14550.4 4654.76 14464.9 4617.75L14464.9 4617.75ZM10201.2 14650.7C10207.4 14626.8 10214 14602.7 10220.9 14578.4C10404.6 13933.9 10852.4 13076.7 11509.4 12096.3L11681 12096.3C11728.8 12096.3 11776.7 12095.5 11824.7 12093.4C11266.1 12911.2 10851.8 13643.4 10614 14237.8L10201.2 14650.6L10201.2 14650.7Z" id="Shape" fill="#FFFFFF" fill-rule="evenodd" stroke="none" />
          <path d="M362.074 11254.2C346.615 11239.7 331.669 11224.9 317.578 11210.3C316.748 11209.4 315.942 11208.6 315.112 11207.7C6.27944 10885.4 -76.802 10434.7 71.4229 10015.3L559.081 8635.55C610.659 8489.66 687.635 8354.6 783.928 8234.41C720.665 8101.89 709.943 7952.76 755.172 7807.49L1632.61 4989.42C1710.3 4739.91 1935.5 4574.14 2196.85 4574.14L4077.32 4574.14C4238.34 4574.14 4401.86 4587.19 4557.69 4629.58C4594.12 4639.49 4630.08 4651.05 4665.36 4664.42C4757.98 4607.1 4865.81 4576.45 4977.78 4576.45L6123.07 4576.45C6270.7 4576.45 6408.75 4627.98 6518.11 4727.13C6518.66 4727.62 6519.22 4728.1 6519.77 4728.61C6520.38 4729.17 6520.91 4729.66 6521.54 4730.23L6995.14 5168.18L7191.67 5168.18C7258.89 5168.18 7324.56 5178.75 7386.81 5200.18C7449.11 5178.86 7514.84 5168.18 7581.52 5168.18L8660.85 5168.18C8753.49 5168.18 8843.37 5188.59 8924.63 5228.83C8963.2 5219.49 9002.14 5211.62 9041.25 5205.11C9193.71 5179.73 9348.74 5171.65 9503.13 5171.65L10625.3 5171.65C10777.8 5171.65 10931.7 5179.12 11081.9 5207.1C11146.4 5219.13 11210.2 5235.65 11271.9 5257.73C11314.5 5235.02 11359.7 5217.73 11406.6 5206.07L11474.8 4988.42C11552.8 4739.4 11777.8 4574.14 12038.7 4574.14L13029.4 4574.14C13115 4420.08 13264.1 4313.37 13444.5 4282.37C14006.6 4185.75 14583.1 4337.81 15021.9 4702.49C15025 4705.07 15028.1 4707.72 15031.2 4710.32C15042.2 4719.62 15053.2 4729 15064 4738.52C15069.6 4743.43 15075.1 4748.45 15080.7 4753.43C15086.8 4758.94 15093 4764.38 15099.1 4770L15807 5424.64C15825.6 5441.83 15843.9 5459.38 15861.8 5477.29L16292.8 5908.31L18158.7 4042.39C17832.4 3703.26 17700.8 3235.72 17809.5 2772.98C17923.7 2286.31 18276.2 1916.24 18756.7 1778.36L22392.7 735.055C22821.6 611.971 23270.2 699.509 23620.9 974.971C23622 975.863 23623.1 976.741 23624.2 977.62C23634.1 985.387 23643.8 993.299 23653.4 1001.31C23656.5 1003.84 23659.5 1006.38 23662.5 1008.93C23670.2 1015.46 23677.8 1022.08 23685.4 1028.76C23690 1032.77 23694.4 1036.83 23699 1040.9C23702.4 1043.99 23705.9 1047.03 23709.3 1050.18L24417.2 1704.82C24422.4 1709.63 24427.6 1714.49 24432.8 1719.38C24792 2061.42 24940.8 2550.23 24827.3 3033.76L23962.9 6715.84C23848.6 7202.51 23496.1 7572.58 23015.6 7710.48C22884.7 7748.02 22749.2 7766.43 22613.7 7764.74C22619.6 8284.33 22418.5 8792.39 22045.4 9165.49L20933 10277.8L25190.7 14535.5C25948.8 15293.5 25948.8 16531.1 25190.7 17289.1C24453.8 18026.1 23257.2 18049.6 22492.2 17342.3L21784.2 16687.6C21765.5 16670.3 21747.1 16652.6 21729 16634.5L20691 15596.5C19963.7 16009 19030 15910.6 18406.6 15334.2L17698.7 14679.6C17680.1 14662.4 17661.7 14644.8 17643.7 14626.8L17212.7 14195.8L12981.7 18426.8C12244.8 19163.7 11048.2 19187.2 10283.3 18479.9L9575.32 17825.2C9556.57 17807.9 9538.17 17790.2 9520.09 17772.1C8762.03 17014 8762 15776.5 9520.07 15018.4L12284.9 12253.7C12238.5 12265.7 12191.5 12275.6 12144.3 12283.6C11991.5 12309.5 11835.9 12318 11681 12318L10558.9 12318C10405.7 12318 10251.1 12310.2 10100.3 12281.7C9924.99 12248.5 9758.3 12183.9 9620.89 12067.6C9611.58 12059.7 9602.41 12051.6 9593.46 12043.3L9072.3 11561.4L8839.93 11561.4L8734.76 11899.2C8657.08 12148.7 8431.85 12314.5 8170.51 12314.5L7020.02 12314.5C6870.8 12314.5 6731.17 12262.1 6621.55 12160.7L6611.9 12151.8C6459.24 12205.1 6298.23 12234.1 6136.27 12234.1L1919.39 12234.1C1606.61 12234.1 1303.88 12125.2 1073.19 11911.8L367.446 11259.2C365.614 11257.6 363.832 11255.9 362.049 11254.2L362.074 11254.2ZM515.294 11094.1C515.111 11093.9 514.916 11093.7 514.733 11093.5C501.643 11081.4 488.992 11068.8 476.672 11056C476.159 11055.5 475.647 11055 475.146 11054.4C245.158 10814.4 149.694 10459 280.385 10089.2L768.043 8709.42C829.353 8535.92 933.987 8380.7 1066.5 8253C1050.54 8237.71 1035.68 8220.72 1021.96 8202.1C950.08 8104.45 930.739 7989.15 966.772 7873.37L1844.21 5055.3C1893.06 4898.38 2032.52 4795.75 2196.86 4795.75L4077.33 4795.75C4217.58 4795.75 4363.78 4806.48 4499.54 4843.41C4569.51 4862.45 4636.78 4888.78 4698.89 4923.88C4766.94 4844.97 4866.68 4798.06 4977.8 4798.06L6123.08 4798.06C6218.19 4798.06 6302.87 4830.53 6369.65 4891.64L6370.14 4892.09C6370.46 4892.38 6370.78 4892.66 6371.08 4892.94L6908.4 5389.79L7191.69 5389.79C7263.73 5389.79 7329.3 5408.2 7386.27 5444.02C7443.01 5408.92 7509.75 5389.79 7581.54 5389.79L8660.86 5389.79C8747.9 5389.79 8826.9 5417.36 8890.4 5468.34C8951.57 5448.84 9014.38 5434.26 9077.66 5423.72C9217.47 5400.45 9361.55 5393.27 9503.14 5393.27L10625.3 5393.27C10763 5393.27 10905.7 5399.72 11041.3 5424.97C11130.5 5441.6 11217.8 5468.38 11297.6 5510.02C11364 5446.81 11453.5 5410.04 11551.9 5410.04L11575 5410.04L11686.3 5054.69C11735.3 4898.09 11874.6 4795.77 12038.7 4795.77L13179.4 4795.77L13191.4 4756.67C13233.2 4620.03 13341.2 4524.99 13482 4500.79C13982.5 4414.81 14493 4551.08 14880.3 4872.95C14883 4875.25 14885.7 4877.6 14888.5 4879.91C14898.3 4888.2 14908.1 4896.57 14917.8 4905.08C14922.8 4909.45 14927.7 4913.93 14932.6 4918.36C14937.9 4923.15 14943.3 4927.86 14948.6 4932.75L15656.6 5587.37C15673 5602.58 15689.2 5618.12 15705.1 5634.03L16292.8 6221.76L18475 4039.51L18356.8 3926.92C18054.1 3638.71 17929.6 3231.06 18025.2 2823.68C18121.1 2415.11 18414.4 2107.16 18817.8 1991.42L22453.8 948.099C22817.7 843.686 23192 919.929 23484 1149.28C23484.9 1150 23485.8 1150.74 23486.8 1151.48C23495.2 1158.11 23503.5 1164.9 23511.8 1171.76C23514.3 1173.84 23516.7 1175.94 23519.2 1178.04C23525.8 1183.64 23532.4 1189.36 23538.9 1195.12C23542.9 1198.6 23546.8 1202.17 23550.8 1205.7C23553.4 1208.1 23556.2 1210.46 23558.8 1212.91L24266.8 1867.55C24271.2 1871.64 24275.6 1875.76 24279.9 1879.91C24582.6 2168.13 24707.1 2575.78 24611.5 2983.15L23747.1 6665.22C23651.2 7073.79 23357.9 7381.75 22954.5 7497.49C22758 7553.88 22558.5 7557.63 22370.5 7513.06C22455.3 8043.56 22292.5 8605 21888.7 9008.83L20619.6 10277.9L25034 14692.2C25705.6 15363.8 25705.6 16460.9 25034 17132.5C24378.5 17788 23317.6 17803.7 22642.7 17179.6L21934.7 16525C21918.2 16509.6 21901.8 16493.9 21885.8 16477.9L20722.5 15314.6C20062 15780 19153.8 15723.3 18557.1 15171.6L17849.2 14516.9C17832.7 14501.7 17816.5 14486.1 17800.5 14470.1L17212.8 13882.4L12825 18270.1C12169.6 18925.6 11108.7 18941.3 10433.8 18317.2L9725.82 17662.5C9709.25 17647.2 9692.94 17631.5 9676.85 17615.4C9005.26 16943.9 9005.22 15846.7 9676.81 15175.2L12759.1 12092.9L12614 12092.9C12518.2 12092.9 12433 12060 12366 11998L12363.6 11995.9C12281.1 12028.1 12194.8 12050.3 12107.3 12065.2C11967.3 12088.9 11822.9 12096.4 11681.1 12096.4L10559 12096.4C10420.7 12096.4 10277.6 12089.7 10141.6 12063.9C10004.8 12038.1 9871.63 11989.4 9764.14 11898.5C9757.25 11892.7 9750.53 11886.7 9743.96 11880.6L9159 11339.7C9150.99 11339.8 9142.99 11339.8 9135.02 11339.8L8676.89 11339.8L8523.21 11833.4C8474.36 11990.3 8334.9 12092.9 8170.56 12092.9L7020.07 12092.9C6924.28 12092.9 6839.07 12060 6772.07 11998.1L6659.29 11893.8C6495.07 11970 6315.89 12012.5 6136.34 12012.5L1919.45 12012.5C1643.3 12012.5 1400.04 11912.2 1223.73 11749.2L515.763 11094.5C515.616 11094.4 515.481 11094.3 515.348 11094.1L515.294 11094.1Z" id="Shape" fill="#FFFFFF" fill-rule="evenodd" stroke="none" />
          <g id="Group" transform="translate(591.6797 1271.1968)">
            <path d="M19282.1 13032.8C18750.8 13462.9 17963.4 13431.2 17469.9 12937.7L15939.7 11407.5L11264.2 16083C10736.8 16610.4 9873.74 16610.4 9346.31 16083L9346.31 16083C8818.86 15555.5 8818.87 14692.5 9346.28 14165L13388.4 10123C13800.9 10522.9 14363.3 10769.2 14983.2 10769.2C15550.8 10769.2 16070.2 10562.8 16470.4 10221L16474.5 10225.2L19282.1 13032.8L19282.1 13032.8Z" id="Shape" fill="#0073BA" fill-rule="evenodd" stroke="none" />
            <path d="M20394.7 4975.74C20854.2 5506.94 20832 6317.65 20327.8 6821.76L18797.7 8351.96L23473.2 13027.5C24000.6 13554.9 24000.6 14418 23473.2 14945.4L23473.2 14945.4C22945.7 15472.8 22082.6 15472.8 21555.2 14945.4L16881.1 10271.3L17520.4 8272.21L17651.5 8272.21C17764.9 8272.21 17861.1 8201.36 17894.9 8093.06L18156.1 7214.3L20394.6 4975.74L20394.7 4975.74Z" id="Shape" fill="#2BA9CD" fill-rule="evenodd" stroke="none" />
            <path d="M13066 6726.99L12238.4 5899.33L12460.3 5186.49L12591.4 5186.49C12704.8 5186.49 12801.1 5115.65 12834.8 5007.34L12966.7 4583.93C12991.6 4504.02 12978.2 4424.46 12928.6 4357.05C12884.5 4297.07 12822.6 4261.65 12750.5 4254.56L12952.9 3593.58C13373.2 3521.37 13821.6 3646.65 14144.3 3969.34L15674.5 5499.53L20350 824.016C20877.4 296.587 21740.5 296.587 22267.9 824.016L22267.9 824.016C22795.4 1351.47 22795.3 2214.56 22267.9 2741.96L18284.4 6725.44L16463.1 6728.3C16063.9 6390.17 15547.4 6186.2 14983.2 6186.2C14419.6 6186.2 13903.5 6389.76 13504.4 6727.3L13066 6726.99L13066 6726.99Z" id="Shape" fill="#24C87C" fill-rule="evenodd" stroke="none" />
            <path d="M2712.75 4529.58L2557.72 4529.58L2311.36 5320.86L2461.16 5320.86C2518.43 5320.86 2564.18 5305.82 2598.61 5275.17C2633.41 5245.1 2661.77 5193.04 2684.84 5119L2804.77 4733.76C2827.84 4659.73 2832.06 4607.09 2817.49 4575.85C2802.93 4544.63 2768.26 4529.59 2712.75 4529.59L2712.75 4529.58ZM727.736 6711.97L1605.16 3893.9L3485.63 3893.9C3617.51 3893.9 3726.11 3905.48 3810.88 3928.6C3896.21 3951.74 3960.84 3987.59 4004.13 4036.18C4048 4084.78 4071.18 4147.82 4073.65 4225.32C4076.3 4302.27 4061.37 4394.82 4028.24 4501.25L3786.35 5278.07C3706.94 5533.15 3596.85 5710.15 3457.16 5809.63C3320.89 5909.13 3116.28 5958.86 2842.67 5958.86L2112.71 5958.86L1878.2 6711.96L727.723 6711.96L727.736 6711.97Z" id="Shape" fill="#FFFFFF" fill-rule="evenodd" stroke="none" />
            <path d="M3509.37 6711.97L4202.21 4486.78L5347.5 4486.78L4654.65 6711.97L3509.37 6711.97L3509.37 6711.97ZM4237.15 4374.56L4386.09 3896.21L5531.38 3896.21L5382.44 4374.56L4237.15 4374.56L4237.15 4374.56Z" id="Shape" fill="#FFFFFF" fill-rule="evenodd" stroke="none" />
            <path d="M6913.39 6711.97L5292.66 6711.97L5516.6 4487.94L6599.99 4487.94L6402.73 5741.95L6989.86 4487.94L8069.18 4487.94L6913.39 6711.97Z" id="Polygon" fill="#FFFFFF" fill-rule="evenodd" stroke="none" />
            <path d="M9126.48 5090.08L8805.9 6119.66C8770.79 6232.46 8806.37 6289.13 8912.2 6289.13C8968.32 6289.13 9012.95 6275.84 9046.1 6249.23C9079.83 6222.62 9105.88 6179.82 9124.62 6119.66L9445.19 5090.08C9480.31 4977.28 9444.74 4920.59 9338.31 4920.59C9283.37 4920.59 9238.74 4933.91 9205 4960.5C9171.26 4987.12 9145.03 5030.5 9126.48 5090.08L9126.48 5090.08ZM7995.72 4996.95C8025.27 4902.09 8062.86 4822.27 8109.64 4757.49C8156.22 4693.27 8215.24 4641.21 8286.48 4601.89C8357.15 4562.56 8444.06 4534.2 8546.63 4516.87C8649.04 4500.08 8770.32 4491.41 8911.45 4491.41L10033.6 4491.41C10174.7 4491.41 10290.6 4500.08 10382 4516.87C10473.7 4534.22 10543.4 4563.14 10591 4603.61C10638.3 4644.69 10665.3 4697.33 10671.2 4762.1C10677.8 4826.32 10666.6 4904.97 10638 4996.95L10260.5 6209.33C10231 6304.18 10193 6383.44 10146.6 6447.07C10100.7 6510.69 10041.1 6562.75 9968.36 6603.24C9895.6 6643.72 9808.12 6672.07 9705.52 6689.41C9603.53 6706.78 9482.25 6715.45 9341.12 6715.45L8219 6715.45C8077.85 6715.45 7961.99 6706.78 7870.2 6689.41C7778.45 6672.06 7708.98 6644.29 7662.82 6604.98C7616.08 6565.65 7589.46 6513.58 7583.04 6448.8C7576.6 6384.01 7588.72 6304.19 7618.25 6209.33L7995.72 4996.95L7995.72 4996.95Z" id="Shape" fill="#FFFFFF" fill-rule="evenodd" stroke="none" />
            <path d="M11176.5 4508.17L11368.9 3893.89L12517.7 3893.89L12326.4 4508.17L12645.1 4508.17L12513.3 4931.58L12194.6 4931.58L11479.5 7311.9L10329.6 7311.9L11044.7 4931.58L11176.5 4508.17Z" id="Polygon" fill="#FFFFFF" fill-rule="evenodd" stroke="none" />
            <path d="M7705.4 7615.27L7550.38 7615.27L7304.01 8406.56L7453.81 8406.56C7511.08 8406.56 7556.83 8391.52 7591.26 8360.87C7626.06 8330.79 7654.42 8278.74 7677.46 8204.7L7797.42 7819.46C7820.48 7745.43 7824.71 7692.79 7810.15 7661.55C7795.58 7630.33 7760.92 7615.29 7705.4 7615.29L7705.4 7615.27ZM5720.39 9797.67L6597.82 6979.6L8478.28 6979.6C8610.17 6979.6 8718.77 6991.16 8803.53 7014.3C8888.86 7037.44 8953.48 7073.29 8996.77 7121.88C9040.64 7170.48 9063.83 7233.51 9066.29 7311.02C9068.96 7387.97 9054.01 7480.52 9020.88 7586.95L8779 8363.76C8699.57 8618.85 8589.5 8795.84 8449.8 8895.33C8313.54 8994.81 8108.92 9044.56 7835.31 9044.56L7105.33 9044.56L6870.85 9797.67L5720.38 9797.67L5720.39 9797.67Z" id="Shape" fill="#FFFFFF" fill-rule="evenodd" stroke="none" />
            <path d="M10166.8 8175.77L9846.21 9205.36C9811.09 9318.16 9846.64 9374.83 9952.49 9374.83C10008.6 9374.83 10053.2 9361.53 10086.4 9334.93C10120.1 9308.32 10146.2 9265.52 10164.9 9205.36L10485.5 8175.77C10520.6 8062.98 10485 8006.29 10378.6 8006.29C10323.7 8006.29 10279 8019.6 10245.3 8046.2C10211.6 8072.82 10185.3 8116.19 10166.8 8175.77L10166.8 8175.77ZM9036.03 8082.64C9065.55 7987.79 9103.15 7907.97 9149.92 7843.18C9196.5 7778.97 9255.54 7726.91 9326.77 7687.59C9397.44 7648.26 9484.37 7619.9 9586.92 7602.56C9689.33 7585.77 9810.61 7577.11 9951.75 7577.11L11073.9 7577.11C11215 7577.11 11330.9 7585.77 11422.2 7602.56C11514 7619.92 11583.7 7648.83 11631.2 7689.31C11678.6 7730.39 11705.6 7783.03 11711.5 7847.8C11718.1 7912.02 11706.9 7990.67 11678.3 8082.64L11300.8 9295.01C11271.3 9389.88 11233.3 9469.14 11186.9 9532.77C11141 9596.39 11081.4 9648.45 11008.7 9688.94C10935.9 9729.42 10848.4 9757.78 10745.8 9775.12C10643.8 9792.48 10522.5 9801.15 10381.4 9801.15L9259.29 9801.15C9118.16 9801.15 9002.29 9792.48 8910.5 9775.12C8818.72 9757.76 8749.27 9730 8703.1 9690.67C8656.36 9651.35 8629.75 9599.28 8623.33 9534.49C8616.89 9469.71 8629.01 9389.89 8658.53 9295.02L9036.03 8082.64L9036.03 8082.64Z" id="Shape" fill="#FFFFFF" fill-rule="evenodd" stroke="none" />
            <path d="M11314.3 9797.66L12007.2 7572.48L13152.4 7572.48L12459.6 9797.66L11314.3 9797.66L11314.3 9797.66ZM12042.1 7460.25L12191 6981.91L13336.3 6981.91L13187.4 7460.25L12042.1 7460.25L12042.1 7460.25Z" id="Shape" fill="#FFFFFF" fill-rule="evenodd" stroke="none" />
            <path d="M12629.1 9797.66L13321.4 7574.21L15145.1 7574.21C15407 7565.53 15587.4 7615.85 15687.4 7725.76C15787.4 7835.65 15804.7 7995.3 15739.2 8205.85L15243.6 9797.67L14095.4 9797.67L14579.3 8243.43C14614.4 8130.65 14578.7 8074.53 14472.8 8074.53C14417.3 8074.53 14372.8 8087.27 14339.1 8113.86C14305.4 8140.47 14279.1 8183.87 14260.6 8243.43L13776.7 9797.67L12629.1 9797.67L12629.1 9797.66Z" id="Shape" fill="#FFFFFF" fill-rule="evenodd" stroke="none" />
            <path d="M16213.3 7593.87L16405.8 6979.6L17554.5 6979.6L17363.2 7593.87L17682 7593.87L17550.1 8017.27L17231.4 8017.27L16677.1 9797.67L15527.2 9797.67L16081.5 8017.27L16213.3 7593.87Z" id="Polygon" fill="#FFFFFF" fill-rule="evenodd" stroke="none" />
            <path d="M22952.3 972.85L22087.9 4654.92C22022.5 4933.26 21827.8 5137.7 21553 5216.6C21278.1 5295.47 21000.9 5226.44 20791.4 5026.94L18019.8 2388.18C17810.3 2188.7 17727.8 1915.22 17793.1 1636.87C17858.5 1358.52 18053.2 1154.07 18328 1075.2L21964 31.8825C22238.8 -46.9861 22516.1 22.0412 22725.6 221.539C22935.1 421.013 23017.6 694.495 22952.3 972.85L22952.3 972.85Z" id="Shape" fill="#24C87C" fill-rule="evenodd" stroke="none" />
            <path d="M1361.65 6983.51L5578.54 6983.51C6032.71 6983.51 6300.71 7365.43 6161.36 7759.7L5673.71 9139.46C5560.04 9461.1 5203.53 9717.24 4836.64 9717.24L619.759 9717.24C165.594 9717.24 -102.405 9335.32 36.9435 8941.06L524.589 7561.29C638.258 7239.66 994.773 6983.5 1361.66 6983.5L1361.65 6983.51ZM1361.65 7300.84L5578.54 7300.84C5790.97 7300.84 5907.59 7462.69 5837.66 7660.49L5350 9040.26C5280.08 9238.06 5049.08 9399.9 4836.64 9399.9L619.758 9399.9C407.33 9399.9 290.73 9238.06 360.648 9040.26L848.306 7660.49C918.236 7462.69 1149.21 7300.84 1361.65 7300.84L1361.65 7300.84Z" id="Shape" fill="#FFFFFF" fill-rule="evenodd" stroke="none" />
            <path d="M1648.73 7961.98L1580.25 8163.73L1639.16 8163.73C1667.03 8163.73 1689.59 8156.11 1706.42 8140.91C1723.48 8125.69 1737.88 8099.98 1750.17 8063.71C1763.29 8025.13 1766.92 7998.51 1761.05 7983.88C1755.19 7969.27 1737.38 7961.96 1707.64 7961.96L1648.73 7961.96L1648.73 7961.98ZM1386.16 8735.59L1445.1 8735.59C1474.81 8735.59 1497.61 8728.28 1513.37 8713.65C1529.17 8699.03 1543.47 8672.74 1556.58 8634.12L1576.45 8575.64C1589.12 8538.24 1592.58 8512.22 1586.93 8497.01C1581.26 8481.79 1563.53 8474.19 1533.8 8474.19L1474.89 8474.19L1386.17 8735.57L1386.16 8735.59ZM740.336 9061.89L1223.81 7637.45L2090.34 7637.45C2152.79 7637.45 2204.14 7643.89 2243.85 7656.76C2283.82 7669.63 2313.04 7689.51 2331.47 7716.39C2349.81 7743.61 2358.2 7778.68 2356.2 7821.94C2354.49 7865.23 2343.51 7916.67 2323.28 7976.31C2291.23 8070.75 2249.6 8143.25 2198.18 8193.54C2147.04 8243.83 2077.62 8279.49 1990.46 8300.55C2061.58 8320.44 2104.38 8360.78 2119.17 8421.58C2133.94 8482.41 2120.56 8573.63 2079.27 8695.25C2033.64 8829.75 1975.28 8924.46 1904.43 8979.43C1833.61 9034.39 1734.24 9061.89 1606.88 9061.89L740.336 9061.89L740.336 9061.89ZM2713.2 9062.76L2774.9 8456.39L2569.12 9062.76L2034.04 9062.76L2517.48 7638.34L3190.98 7638.34L3171.21 8208.75L3538.4 7638.34L4213.23 7638.34L3729.78 9062.76L3193.66 9062.76L3399.46 8456.39L3050.61 9062.76L2713.2 9062.76L2713.2 9062.76ZM4149.74 9063.34C4037.07 9063.05 3959.36 9041.11 3917.11 8996.69C3874.81 8952.53 3872.13 8879.13 3909.11 8776.53L3993.86 8526.85L4550.8 8526.85L4517.97 8623.62C4495.64 8689.39 4506.97 8722.14 4551.85 8722.14C4575.65 8722.14 4595.72 8713.94 4612.35 8697.57C4629.01 8681.2 4644 8653.72 4657.1 8615.14C4664.36 8593.78 4669.34 8575.95 4671.93 8561.92C4674.54 8547.89 4674.38 8535.61 4671.35 8525.38C4668.42 8514.86 4662.32 8505.8 4652.48 8498.18C4642.98 8490.29 4629.15 8482.4 4611.4 8474.2L4285.25 8323.06C4209.57 8287.98 4163.32 8250.55 4146.83 8210.78C4130.36 8169.28 4134.08 8113.72 4157.52 8044.73L4207.81 7896.49C4236.59 7811.72 4286.97 7747.68 4359.08 7704.12C4431.17 7660.57 4523.5 7638.63 4636.26 7638.63L5196.73 7638.63C5309.74 7638.63 5387.47 7660.57 5429.72 7704.12C5472.28 7747.68 5478.92 7811.72 5450.15 7896.49L5394.79 8059.64L4841.61 8059.64L4847.28 8042.97C4868.52 7980.4 4855.62 7949.12 4808.29 7949.12C4788.81 7949.12 4770.69 7955.55 4754.78 7968.13C4738.62 7980.7 4727.13 7997.06 4720.27 8017.25C4716.79 8027.49 4714.55 8036.55 4714.33 8043.57C4713.73 8050.87 4715.96 8057.9 4720.35 8064.9C4725.1 8071.63 4732.59 8078.95 4742.84 8086.26C4752.68 8093.88 4767.32 8101.76 4786.14 8110.82L5163.16 8294.44C5186.59 8306.71 5205.32 8320.76 5219.43 8336.54C5233.18 8352.62 5242.43 8371.61 5247.12 8394.42C5251.52 8417.23 5251.23 8444.41 5245.64 8476C5240.25 8507.85 5230.07 8545 5215.38 8588.27L5163.5 8741.17C5120.71 8861.64 5063.85 8945.53 4993.52 8992.59C4923.2 9039.67 4828.74 9063.08 4709.93 9063.37L4149.76 9063.37L4149.74 9063.34Z" id="Shape" fill="#FFFFFF" fill-rule="evenodd" stroke="none" />
          </g>
        </g>
      </g>
    </g>
  </g>
</svg>